<svg width="40" height="40" viewBox="0 0 40 40" fill="none" xmlns="http://www.w3.org/2000/svg">
  <!-- Rounded square container -->
  <rect x="2" y="2" width="36" height="36" rx="10" fill="currentColor" fill-opacity="0.1"/>
  <rect x="2" y="2" width="36" height="36" rx="10" stroke="currentColor" stroke-width="2"/>
  
  <!-- Flow nodes and paths representing workflow -->
  <!-- Top node -->
  <circle cx="20" cy="10" r="3" fill="currentColor"/>
  
  <!-- Left node -->
  <circle cx="10" cy="24" r="3" fill="currentColor"/>
  
  <!-- Right node -->
  <circle cx="30" cy="24" r="3" fill="currentColor"/>
  
  <!-- Bottom node -->
  <circle cx="20" cy="32" r="3" fill="currentColor"/>
  
  <!-- Flowing connection paths -->
  <path d="M20 13 L20 17 C20 20 15 22 10 21" stroke="currentColor" stroke-width="2" stroke-linecap="round" fill="none"/>
  <path d="M20 13 L20 17 C20 20 25 22 30 21" stroke="currentColor" stroke-width="2" stroke-linecap="round" fill="none"/>
  <path d="M13 24 C16 26 17 29 20 29" stroke="currentColor" stroke-width="2" stroke-linecap="round" fill="none"/>
  <path d="M27 24 C24 26 23 29 20 29" stroke="currentColor" stroke-width="2" stroke-linecap="round" fill="none"/>
</svg>
